<svg width="110" height="40" viewBox="0 0 110 40" fill="none" xmlns="http://www.w3.org/2000/svg">
<g clip-path="url(#clip0_3_223)">
<path d="M47.038 39.9672H44.5508V21.1811C44.5508 18.511 45.3254 16.3684 46.8494 14.8063C48.3734 13.2467 50.4708 12.4543 53.0787 12.4543H58.2115L56.089 15.0006H53.0787C51.1271 15.0006 49.666 15.5255 48.6098 16.6057C47.5535 17.6858 47.0405 19.1823 47.0405 21.1811V39.9672H47.038Z" fill="white"/>
<path d="M2.4872 0.0328064H0V31.2404C0 33.9104 0.774577 36.0555 2.29858 37.6151C3.82259 39.1748 5.91998 39.9672 8.52789 39.9672H10.6177L9.55647 37.4208H8.52789C6.57636 37.4208 5.11523 36.8959 4.05898 35.8158C3.00274 34.7356 2.48971 33.2391 2.48971 31.2404V0.0328064H2.4872Z" fill="white"/>
<path d="M108.954 13.812C108.217 12.9211 107.206 12.4492 106.026 12.4492H90.155V14.9956H106.026C106.481 14.9956 106.786 15.1319 107.052 15.4549C107.364 15.8334 107.51 16.2397 107.51 16.7344C107.51 17.229 107.427 17.6429 107.254 18.0442C107.171 18.236 106.919 18.6423 106.147 19.195L91.2288 31.1546C90.2631 31.8536 89.6294 32.5703 89.2949 33.3476C88.9856 34.0669 88.8271 34.8543 88.8271 35.682C88.8271 36.7823 89.1792 37.7666 89.8708 38.6044C90.6052 39.4953 91.6186 39.9672 92.7981 39.9672H108.669V37.4208H92.7981C92.3454 37.4208 92.0361 37.2845 91.7721 36.9615C91.4602 36.583 91.3143 36.1767 91.3143 35.682C91.3143 35.1874 91.3973 34.7735 91.5709 34.3722C91.6539 34.1804 91.9079 33.7741 92.6774 33.2189L107.596 21.2618C108.564 20.5628 109.195 19.8461 109.529 19.0688C109.839 18.3495 109.997 17.5647 109.997 16.7319C109.997 15.6315 109.645 14.6498 108.951 13.8095" fill="white"/>
<path opacity="0.1" d="M72.6368 12.477C65.0847 12.477 58.9409 18.6423 58.9409 26.2233C58.9409 33.8044 65.0847 39.9697 72.6368 39.9697C80.189 39.9697 86.3353 33.8044 86.3353 26.2233C86.3353 18.6423 80.1915 12.477 72.6368 12.477ZM72.6368 37.4486C66.4679 37.4486 61.4482 32.4114 61.4482 26.2208C61.4482 20.0303 66.4679 14.9931 72.6368 14.9931C78.8058 14.9931 83.8255 20.0303 83.8255 26.2208C83.8255 32.4114 78.8058 37.4486 72.6368 37.4486Z" fill="white"/>
<path d="M72.6368 39.9672C65.0847 39.9672 58.9409 33.8019 58.9409 26.2208C58.9409 18.6398 65.0847 12.477 72.6368 12.477C76.6707 12.477 80.4807 14.2486 83.0911 17.3401L81.1773 18.9678C79.0447 16.4416 75.9313 14.9956 72.6368 14.9956C66.4679 14.9956 61.4482 20.0328 61.4482 26.2233C61.4482 32.4139 66.4679 37.4511 72.6368 37.4511C75.9263 37.4511 79.0372 36.0076 81.1673 33.489L83.0786 35.1192C80.4681 38.2032 76.6631 39.9697 72.6343 39.9697" fill="white"/>
<path d="M39.307 26.2208C39.307 18.6423 33.1632 12.4744 25.6086 12.4744C18.054 12.4744 11.9102 18.6397 11.9102 26.2183C11.9102 33.7968 18.054 39.9647 25.6086 39.9647C30.2385 39.9647 34.3377 37.6454 36.8173 34.1047V39.9647H39.3045V26.2183L39.307 26.2208ZM25.6086 37.4486C19.4396 37.4486 14.42 32.4114 14.42 26.2208C14.42 20.0303 19.4396 14.9931 25.6086 14.9931C31.7776 14.9931 36.7972 20.0303 36.7972 26.2208C36.7972 32.4114 31.7776 37.4486 25.6086 37.4486Z" fill="white"/>
</g>
<defs>
<clipPath id="clip0_3_223">
<rect width="110" height="40" fill="white"/>
</clipPath>
</defs>
</svg>
